<svg
width="17"
height="17"
viewBox="0 0 17 17"
fill="none"
xmlns="http://www.w3.org/2000/svg"
>
<path
d="M1.75 8.5L3.33333 7M3.33333 7L8.875 1.75L14.4167 7M3.33333 7V14.5C3.33333 14.6989 3.41674 14.8897 3.56521 15.0303C3.71367 15.171 3.91504 15.25 4.125 15.25H6.5M14.4167 7L16 8.5M14.4167 7V14.5C14.4167 14.6989 14.3333 14.8897 14.1848 15.0303C14.0363 15.171 13.835 15.25 13.625 15.25H11.25M6.5 15.25C6.70996 15.25 6.91133 15.171 7.05979 15.0303C7.20826 14.8897 7.29167 14.6989 7.29167 14.5V11.5C7.29167 11.3011 7.37507 11.1103 7.52354 10.9697C7.67201 10.829 7.87337 10.75 8.08333 10.75H9.66667C9.87663 10.75 10.078 10.829 10.2265 10.9697C10.3749 11.1103 10.4583 11.3011 10.4583 11.5V14.5C10.4583 14.6989 10.5417 14.8897 10.6902 15.0303C10.8387 15.171 11.04 15.25 11.25 15.25M6.5 15.25H11.25"
stroke="#212121"
stroke-width="2"
stroke-linecap="round"
stroke-linejoin="round"
/>
</svg>